<svg width="18" height="18" viewBox="0 0 18 18" fill="none" xmlns="http://www.w3.org/2000/svg">
<path d="M0 9.76029H2.97853C3.2093 9.76029 3.37299 9.7254 3.46959 9.65564C3.57156 9.5805 3.65206 9.47048 3.71109 9.32558L4.62075 7.11181L6.34347 12.6261C6.39177 12.7764 6.48569 12.8757 6.62522 12.924C6.77013 12.9723 6.91234 12.9696 7.05188 12.9159C7.19678 12.8623 7.2907 12.7576 7.33363 12.602L8.24329 9.76029H10.0465C10.2021 9.76029 10.3229 9.7254 10.4088 9.65564C10.5 9.5805 10.5751 9.47048 10.6342 9.32558L11.5841 7.11181L13.3068 12.6261C13.3551 12.7764 13.449 12.8757 13.5886 12.924C13.7335 12.9723 13.8757 12.9696 14.0152 12.9159C14.1601 12.8623 14.2567 12.7576 14.305 12.602L15.2066 9.76029H18V8.71377H14.9088C14.6243 8.71377 14.4311 8.85599 14.3292 9.14043L13.7979 10.6136L12.0832 5.41324C12.0349 5.26834 11.9437 5.17174 11.8095 5.12343C11.6753 5.06977 11.5358 5.06977 11.3909 5.12343C11.2513 5.17174 11.1521 5.2737 11.093 5.42934L9.74866 8.71377H7.94544C7.661 8.71377 7.46512 8.85599 7.35778 9.14043L6.83453 10.6136L5.11986 5.41324C5.07156 5.26834 4.97764 5.17174 4.8381 5.12343C4.70394 5.06977 4.56708 5.06977 4.42755 5.12343C4.28801 5.17174 4.18873 5.2737 4.1297 5.42934L2.77728 8.71377H0V9.76029ZM2.44723 16.1199C1.64222 16.1199 1.03309 15.9159 0.619857 15.5081C0.206619 15.1055 0 14.5045 0 13.7048V4.41503C0 3.61538 0.206619 3.01431 0.619857 2.61181C1.03309 2.20394 1.64222 2 2.44723 2H15.5528C16.3685 2 16.9803 2.20394 17.3882 2.61181C17.7961 3.01431 18 3.61538 18 4.41503V13.7048C18 14.5045 17.7961 15.1055 17.3882 15.5081C16.9803 15.9159 16.3685 16.1199 15.5528 16.1199H2.44723Z" fill="#2C2D2E"/>
</svg>
