<svg width="18" height="18" viewBox="0 0 18 18" fill="none" xmlns="http://www.w3.org/2000/svg">
<path d="M2.87244 17.5732C1.92756 17.5732 1.2126 17.337 0.727559 16.8646C0.24252 16.3921 0 15.6835 0 14.7386V3.84409C0 2.89921 0.24252 2.19055 0.727559 1.71811C1.2126 1.23937 1.92756 1 2.87244 1H15.1276C16.085 1 16.8032 1.23937 17.2819 1.71811C17.7606 2.19685 18 2.90551 18 3.84409V14.7386C18 15.6772 17.7606 16.3827 17.2819 16.8551C16.8032 17.3339 16.085 17.5732 15.1276 17.5732H2.87244ZM2.79685 15.9764H15.1937C15.578 15.9764 15.874 15.8756 16.0819 15.674C16.2961 15.4724 16.4032 15.1669 16.4032 14.7575V6.43307C16.4032 6.02992 16.2961 5.72756 16.0819 5.52598C15.874 5.32441 15.578 5.22362 15.1937 5.22362H2.79685C2.4126 5.22362 2.11969 5.32441 1.91811 5.52598C1.71654 5.72756 1.61575 6.02992 1.61575 6.43307V14.7575C1.61575 15.1669 1.71654 15.4724 1.91811 15.674C2.11969 15.8756 2.4126 15.9764 2.79685 15.9764ZM7.27559 8.37008C7.11811 8.37008 7.00472 8.34173 6.93543 8.28504C6.87244 8.22835 6.84094 8.12126 6.84094 7.96378V7.44409C6.84094 7.28661 6.87244 7.17953 6.93543 7.12283C7.00472 7.05984 7.11811 7.02835 7.27559 7.02835H7.79528C7.95276 7.02835 8.05984 7.05984 8.11654 7.12283C8.17953 7.17953 8.21102 7.28661 8.21102 7.44409V7.96378C8.21102 8.12126 8.17953 8.22835 8.11654 8.28504C8.05984 8.34173 7.95276 8.37008 7.79528 8.37008H7.27559ZM10.2142 8.37008C10.0567 8.37008 9.94646 8.34173 9.88346 8.28504C9.82677 8.22835 9.79843 8.12126 9.79843 7.96378V7.44409C9.79843 7.28661 9.82677 7.17953 9.88346 7.12283C9.94646 7.05984 10.0567 7.02835 10.2142 7.02835H10.7433C10.9008 7.02835 11.011 7.05984 11.074 7.12283C11.137 7.17953 11.1685 7.28661 11.1685 7.44409V7.96378C11.1685 8.12126 11.137 8.22835 11.074 8.28504C11.011 8.34173 10.9008 8.37008 10.7433 8.37008H10.2142ZM13.1622 8.37008C12.9984 8.37008 12.885 8.34173 12.822 8.28504C12.7654 8.22835 12.737 8.12126 12.737 7.96378V7.44409C12.737 7.28661 12.7654 7.17953 12.822 7.12283C12.885 7.05984 12.9984 7.02835 13.1622 7.02835H13.6913C13.8488 7.02835 13.9559 7.05984 14.0126 7.12283C14.0756 7.17953 14.1071 7.28661 14.1071 7.44409V7.96378C14.1071 8.12126 14.0756 8.22835 14.0126 8.28504C13.9559 8.34173 13.8488 8.37008 13.6913 8.37008H13.1622ZM4.32756 11.2803C4.16378 11.2803 4.05039 11.252 3.9874 11.1953C3.93071 11.1323 3.90236 11.022 3.90236 10.8646V10.3354C3.90236 10.178 3.93071 10.0709 3.9874 10.0142C4.05039 9.95748 4.16378 9.92913 4.32756 9.92913H4.84724C5.01102 9.92913 5.12126 9.95748 5.17795 10.0142C5.24094 10.0709 5.27244 10.178 5.27244 10.3354V10.8646C5.27244 11.022 5.24094 11.1323 5.17795 11.1953C5.12126 11.252 5.01102 11.2803 4.84724 11.2803H4.32756ZM7.27559 11.2803C7.11811 11.2803 7.00472 11.252 6.93543 11.1953C6.87244 11.1323 6.84094 11.022 6.84094 10.8646V10.3354C6.84094 10.178 6.87244 10.0709 6.93543 10.0142C7.00472 9.95748 7.11811 9.92913 7.27559 9.92913H7.79528C7.95276 9.92913 8.05984 9.95748 8.11654 10.0142C8.17953 10.0709 8.21102 10.178 8.21102 10.3354V10.8646C8.21102 11.022 8.17953 11.1323 8.11654 11.1953C8.05984 11.252 7.95276 11.2803 7.79528 11.2803H7.27559ZM10.2142 11.2803C10.0567 11.2803 9.94646 11.252 9.88346 11.1953C9.82677 11.1323 9.79843 11.022 9.79843 10.8646V10.3354C9.79843 10.178 9.82677 10.0709 9.88346 10.0142C9.94646 9.95748 10.0567 9.92913 10.2142 9.92913H10.7433C10.9008 9.92913 11.011 9.95748 11.074 10.0142C11.137 10.0709 11.1685 10.178 11.1685 10.3354V10.8646C11.1685 11.022 11.137 11.1323 11.074 11.1953C11.011 11.252 10.9008 11.2803 10.7433 11.2803H10.2142ZM13.1622 11.2803C12.9984 11.2803 12.885 11.252 12.822 11.1953C12.7654 11.1323 12.737 11.022 12.737 10.8646V10.3354C12.737 10.178 12.7654 10.0709 12.822 10.0142C12.885 9.95748 12.9984 9.92913 13.1622 9.92913H13.6913C13.8488 9.92913 13.9559 9.95748 14.0126 10.0142C14.0756 10.0709 14.1071 10.178 14.1071 10.3354V10.8646C14.1071 11.022 14.0756 11.1323 14.0126 11.1953C13.9559 11.252 13.8488 11.2803 13.6913 11.2803H13.1622ZM4.32756 14.1717C4.16378 14.1717 4.05039 14.1433 3.9874 14.0866C3.93071 14.0299 3.90236 13.9228 3.90236 13.7654V13.2457C3.90236 13.0819 3.93071 12.9717 3.9874 12.915C4.05039 12.8583 4.16378 12.8299 4.32756 12.8299H4.84724C5.01102 12.8299 5.12126 12.8583 5.17795 12.915C5.24094 12.9717 5.27244 13.0819 5.27244 13.2457V13.7654C5.27244 13.9228 5.24094 14.0299 5.17795 14.0866C5.12126 14.1433 5.01102 14.1717 4.84724 14.1717H4.32756ZM7.27559 14.1717C7.11811 14.1717 7.00472 14.1433 6.93543 14.0866C6.87244 14.0299 6.84094 13.9228 6.84094 13.7654V13.2457C6.84094 13.0819 6.87244 12.9717 6.93543 12.915C7.00472 12.8583 7.11811 12.8299 7.27559 12.8299H7.79528C7.95276 12.8299 8.05984 12.8583 8.11654 12.915C8.17953 12.9717 8.21102 13.0819 8.21102 13.2457V13.7654C8.21102 13.9228 8.17953 14.0299 8.11654 14.0866C8.05984 14.1433 7.95276 14.1717 7.79528 14.1717H7.27559ZM10.2142 14.1717C10.0567 14.1717 9.94646 14.1433 9.88346 14.0866C9.82677 14.0299 9.79843 13.9228 9.79843 13.7654V13.2457C9.79843 13.0819 9.82677 12.9717 9.88346 12.915C9.94646 12.8583 10.0567 12.8299 10.2142 12.8299H10.7433C10.9008 12.8299 11.011 12.8583 11.074 12.915C11.137 12.9717 11.1685 13.0819 11.1685 13.2457V13.7654C11.1685 13.9228 11.137 14.0299 11.074 14.0866C11.011 14.1433 10.9008 14.1717 10.7433 14.1717H10.2142Z" fill="#919399"/>
</svg>
