<svg width="18" height="18" viewBox="0 0 18 18" fill="none" xmlns="http://www.w3.org/2000/svg">
<path d="M2.07982 15C1.39111 15 0.871152 14.8267 0.519954 14.48C0.173318 14.138 0 13.6271 0 12.9475V5.05245C0 4.37286 0.173318 3.86203 0.519954 3.51995C0.871152 3.17332 1.39111 3 2.07982 3H13.2178C13.9065 3 14.4242 3.17332 14.7708 3.51995C15.122 3.86203 15.2976 4.37286 15.2976 5.05245V8.22691C15.0878 8.19042 14.8803 8.17674 14.675 8.18586C14.4698 8.19042 14.2645 8.21323 14.0593 8.25428V7.76169H8.22349V10.2383H11.0627C10.9624 10.4116 10.8712 10.5941 10.7891 10.7856C10.7115 10.9726 10.6499 11.1665 10.6043 11.3672H8.22349V13.8369H10.7548C10.8278 14.0513 10.9168 14.2543 11.0217 14.4458C11.1266 14.642 11.2452 14.8267 11.3774 15H2.07982ZM1.1699 6.626H7.07412V4.15621H2.12771C1.81756 4.15621 1.58039 4.23831 1.41619 4.40251C1.252 4.5667 1.1699 4.81072 1.1699 5.13455V6.626ZM8.22349 6.626H14.1414V5.13455C14.1414 4.81072 14.057 4.5667 13.8883 4.40251C13.7241 4.23831 13.4846 4.15621 13.1699 4.15621H8.22349V6.626ZM1.1699 10.2383H7.07412V7.76169H1.1699V10.2383ZM1.1699 12.8654C1.1699 13.1847 1.252 13.4265 1.41619 13.5906C1.58039 13.7548 1.81756 13.8369 2.12771 13.8369H7.07412V11.3672H1.1699V12.8654ZM14.6887 15.7047C14.2372 15.7047 13.8107 15.618 13.4093 15.4447C13.008 15.2759 12.6545 15.0388 12.3489 14.7332C12.0479 14.4276 11.8107 14.0741 11.6374 13.6727C11.4641 13.2714 11.3774 12.8449 11.3774 12.3934C11.3774 11.7868 11.5279 11.2326 11.829 10.7309C12.13 10.2292 12.5291 9.8301 13.0262 9.53364C13.5279 9.23261 14.0821 9.0821 14.6887 9.0821C15.2908 9.0821 15.8426 9.23261 16.3444 9.53364C16.8506 9.8301 17.252 10.2292 17.5485 10.7309C17.8495 11.2326 18 11.7868 18 12.3934C18 12.8449 17.9111 13.2691 17.7332 13.6659C17.5599 14.0673 17.3204 14.4208 17.0148 14.7263C16.7092 15.0319 16.3558 15.2714 15.9544 15.4447C15.5576 15.618 15.1357 15.7047 14.6887 15.7047ZM12.8894 12.9202C13.0353 12.9202 13.1585 12.8677 13.2588 12.7628C13.3592 12.6579 13.4093 12.5348 13.4093 12.3934C13.4139 12.252 13.3637 12.1288 13.2588 12.0239C13.1585 11.919 13.0353 11.8666 12.8894 11.8666C12.748 11.8666 12.6249 11.919 12.52 12.0239C12.4196 12.1288 12.3694 12.252 12.3694 12.3934C12.3694 12.5348 12.4196 12.6579 12.52 12.7628C12.6249 12.8677 12.748 12.9202 12.8894 12.9202ZM14.6887 12.9202C14.8301 12.9202 14.9532 12.8677 15.0582 12.7628C15.1631 12.6579 15.2155 12.5348 15.2155 12.3934C15.2201 12.252 15.1676 12.1288 15.0582 12.0239C14.9532 11.919 14.8301 11.8666 14.6887 11.8666C14.5473 11.8666 14.4242 11.919 14.3193 12.0239C14.2189 12.1288 14.1688 12.252 14.1688 12.3934C14.1688 12.5348 14.2189 12.6579 14.3193 12.7628C14.4242 12.8677 14.5473 12.9202 14.6887 12.9202ZM16.488 12.9202C16.6294 12.9202 16.7503 12.8677 16.8506 12.7628C16.9555 12.6579 17.008 12.5348 17.008 12.3934C17.008 12.252 16.9555 12.1288 16.8506 12.0239C16.7503 11.919 16.6294 11.8666 16.488 11.8666C16.3421 11.8666 16.2166 11.919 16.1117 12.0239C16.0114 12.1288 15.9612 12.252 15.9612 12.3934C15.9612 12.5348 16.0114 12.6579 16.1117 12.7628C16.2166 12.8677 16.3421 12.9202 16.488 12.9202Z" fill="#919399"/>
</svg>
