<svg width="18" height="18" viewBox="0 0 18 18" fill="none" xmlns="http://www.w3.org/2000/svg">
<path d="M9.00463 18C7.76943 18 6.60834 17.7622 5.52136 17.2867C4.44056 16.8173 3.48636 16.1688 2.65878 15.3412C1.83119 14.5136 1.17962 13.5594 0.704066 12.4786C0.234689 11.3917 0 10.2306 0 8.99537C0 7.76634 0.234689 6.60834 0.704066 5.52136C1.17344 4.43438 1.82192 3.4771 2.64951 2.64951C3.48327 1.82192 4.44056 1.17344 5.52136 0.704066C6.60834 0.234689 7.76634 0 8.99537 0C10.2244 0 11.3824 0.234689 12.4694 0.704066C13.5564 1.17344 14.5136 1.82192 15.3412 2.64951C16.1688 3.4771 16.8173 4.43438 17.2867 5.52136C17.7622 6.60834 18 7.76634 18 8.99537C18 10.2306 17.7653 11.3917 17.2959 12.4786C16.8266 13.5594 16.1781 14.5136 15.3505 15.3412C14.5229 16.1688 13.5656 16.8173 12.4786 17.2867C11.3917 17.7622 10.2337 18 9.00463 18ZM9.00463 16.351C10.0237 16.351 10.9779 16.1595 11.8672 15.7766C12.7566 15.3999 13.5378 14.8749 14.211 14.2017C14.8842 13.5286 15.4092 12.7473 15.7859 11.858C16.1626 10.9686 16.351 10.0144 16.351 8.99537C16.351 7.97633 16.1626 7.02213 15.7859 6.13278C15.4092 5.24344 14.8842 4.46217 14.211 3.78899C13.5378 3.1158 12.7535 2.59084 11.858 2.2141C10.9686 1.83736 10.0144 1.649 8.99537 1.649C7.97633 1.649 7.02213 1.83736 6.13278 2.2141C5.24961 2.59084 4.47144 3.1158 3.79825 3.78899C3.12506 4.46217 2.6001 5.24344 2.22337 6.13278C1.84663 7.02213 1.65826 7.97633 1.65826 8.99537C1.65826 10.0144 1.84663 10.9686 2.22337 11.858C2.6001 12.7473 3.12506 13.5286 3.79825 14.2017C4.47144 14.8749 5.2527 15.3999 6.14205 15.7766C7.03139 16.1595 7.98559 16.351 9.00463 16.351ZM8.99537 4.51158C9.20535 4.51158 9.37828 4.57952 9.51415 4.71539C9.65003 4.85126 9.71796 5.0211 9.71796 5.22491V9.4771L9.64385 11.3021L10.4869 10.2831L11.4874 9.2455C11.6171 9.10962 11.7869 9.04169 11.9969 9.04169C12.1884 9.04169 12.3489 9.10654 12.4786 9.23623C12.6083 9.35975 12.6732 9.51724 12.6732 9.7087C12.6732 9.90015 12.6083 10.0638 12.4786 10.1997L9.56974 13.1179C9.39063 13.297 9.19918 13.3865 8.99537 13.3865C8.80391 13.3865 8.61863 13.297 8.43953 13.1179L5.53062 10.1997C5.40093 10.07 5.33608 9.90633 5.33608 9.7087C5.33608 9.51724 5.40093 9.35975 5.53062 9.23623C5.66032 9.10654 5.8209 9.04169 6.01235 9.04169C6.20998 9.04169 6.37674 9.10962 6.51261 9.2455L7.52239 10.2831L8.35615 11.2928L8.28204 9.4771V5.22491C8.28204 5.0211 8.34997 4.85126 8.48585 4.71539C8.62172 4.57952 8.79156 4.51158 8.99537 4.51158Z" fill="#528FDF"/>
</svg>
