<svg width="167" height="57" viewBox="0 0 167 57" fill="none" xmlns="http://www.w3.org/2000/svg">
<path opacity="0.13" d="M260.533 16.7981C229.613 17.2394 226.236 23.0558 206.133 21.0301C186.03 19.0045 169.531 11.423 147.202 15.3482C124.62 19.2566 112.96 36.2898 98.341 30.1372C83.722 23.9846 80.8977 13.0914 68.2136 14.0706C55.5294 15.0498 42.6303 25.7707 32.6061 25.8379C23.9772 25.9136 32.0876 16.2728 8.376 16.7981" stroke="#005BD1" stroke-width="0.446214" stroke-miterlimit="10"/>
<path opacity="0.25" d="M261.312 16.0417C230.393 16.4619 226.965 28.162 206.862 26.1279C186.759 24.0939 171.874 9.83861 149.47 13.1671C126.614 16.4955 116.897 40.0217 102.257 33.8691C87.6171 27.7165 85.9983 11.692 73.3142 12.6586C60.6301 13.6252 48.3759 27.3677 36.9606 27.2038C28.3359 27.0693 30.8947 13.3352 7.19148 15.5668" stroke="#005BD1" stroke-width="0.446214" stroke-miterlimit="10"/>
<path opacity="0.38" d="M262.092 15.285C231.177 15.7263 227.69 33.2679 207.587 31.2549C187.484 29.2418 174.176 8.28343 151.733 11.0193C128.591 13.751 120.834 43.7997 106.207 37.6303C91.5795 31.4608 91.0863 10.2797 78.4063 11.2589C65.7264 12.2381 54.113 28.9098 41.3108 28.561C32.6861 28.3299 29.7016 10.3931 5.99845 14.3352" stroke="#005BD1" stroke-width="0.446214" stroke-miterlimit="10"/>
<path opacity="0.5" d="M262.885 14.5285C231.969 14.9698 228.428 38.3783 208.329 36.3526C188.23 34.327 176.515 6.74105 154.014 8.83815C130.58 11.0193 124.784 47.5022 110.174 41.3579C95.563 35.2137 96.2206 8.85496 83.5365 9.83837C70.8523 10.8218 59.8965 30.4312 45.6906 29.9016C37.0744 29.578 28.5382 7.42607 4.84341 13.0912" stroke="#005BD1" stroke-width="0.446214" stroke-miterlimit="10"/>
<path opacity="0.63" d="M263.656 13.7725C232.736 14.1928 229.145 43.4849 209.042 41.4593C188.938 39.4336 178.821 5.11512 156.265 6.66588C132.536 8.20824 128.709 51.2514 114.086 45.0987C99.4623 38.9461 101.296 7.44336 88.6119 8.42678C75.9277 9.41019 65.6169 31.9614 50.0199 31.2469C41.4036 30.8267 27.3242 4.46792 3.65054 11.8267" stroke="#005BD1" stroke-width="0.446214" stroke-miterlimit="10"/>
<path opacity="0.75" d="M264.436 13.0158C233.516 13.4361 229.87 48.5909 209.767 46.5653C189.663 44.5396 181.144 3.53895 158.533 4.49714C134.505 5.44273 132.646 54.9915 118.023 48.8389C103.399 42.6863 106.397 6.03109 93.7124 7.0145C81.0283 7.99791 71.3708 33.5498 54.3743 32.5916C45.7581 32.1083 26.1312 1.49227 2.44486 10.5825" stroke="#005BD1" stroke-width="0.446214" stroke-miterlimit="10"/>
<path opacity="0.88" d="M265.216 12.2592C234.3 12.6794 230.599 53.6969 210.496 51.6713C190.393 49.6456 183.467 1.96279 160.796 2.32841C136.486 2.67723 136.583 58.7316 121.96 52.579C107.337 46.4264 111.493 4.61884 98.8131 5.60225C86.1332 6.58566 77.1039 35.1256 58.7289 33.9404C50.1127 33.3815 24.9425 -1.44552 1.26041 9.33417" stroke="#005BD1" stroke-width="0.446214" stroke-miterlimit="10"/>
<path d="M266 11.4986C235.08 11.9188 231.324 58.8031 211.2 56.7817C191.076 54.7602 185.789 0.386846 163.064 0.159905C138.459 -0.0880485 140.52 62.472 125.897 56.3194C111.274 50.1668 116.594 3.21101 103.91 4.20702C91.2254 5.20304 82.8325 36.7394 63.0792 35.3063C54.4671 34.6844 23.7537 -4.37891 0.071631 8.10705" stroke="#005BD1" stroke-width="0.446214" stroke-miterlimit="10"/>
</svg>
