<svg width="25" height="25" viewBox="0 0 25 25" fill="none" xmlns="http://www.w3.org/2000/svg">
<path d="M24.8447 12.3005C24.8447 13.9474 24.5277 15.4955 23.8936 16.9448C23.2678 18.3859 22.4031 19.6582 21.2997 20.7616C20.1962 21.8651 18.924 22.7338 17.4829 23.3679C16.0336 23.9937 14.4855 24.3066 12.8386 24.3066C11.1998 24.3066 9.65584 23.9937 8.20654 23.3679C6.75723 22.742 5.48086 21.8774 4.37741 20.774C3.27396 19.6623 2.40932 18.3859 1.78348 16.9448C1.15764 15.4955 0.844727 13.9515 0.844727 12.3128C0.844726 10.6741 1.15764 9.13011 1.78348 7.6808C2.40932 6.2315 3.27396 4.95512 4.37741 3.85167C5.48086 2.74823 6.75723 1.88358 8.20654 1.25775C9.65584 0.623676 11.1998 0.30664 12.8385 0.30664C14.4855 0.30664 16.0336 0.619558 17.4829 1.24539C18.924 1.87123 20.1962 2.73587 21.2997 3.83932C22.4031 4.94277 23.2678 6.21915 23.8936 7.66845C24.5277 9.11776 24.8447 10.6618 24.8447 12.3005ZM18.8787 17.2536L15.5807 10.3983C15.4078 10.0195 15.1196 9.73536 14.7161 9.54596L7.89774 6.26032C7.46953 6.06269 7.12779 6.08739 6.87252 6.33443C6.61724 6.58147 6.59666 6.92733 6.81076 7.372L10.0964 14.178C10.2611 14.5568 10.5493 14.845 10.961 15.0426L17.7917 18.3406C18.0717 18.4641 18.3187 18.4888 18.5328 18.4147C18.7387 18.3324 18.8828 18.1883 18.9652 17.9824C19.0393 17.7765 19.0105 17.5336 18.8787 17.2536ZM14.3579 12.3005C14.3579 12.7122 14.2137 13.0663 13.9255 13.3627C13.6291 13.651 13.2709 13.7951 12.8509 13.7951C12.4392 13.7951 12.0851 13.651 11.7886 13.3627C11.4922 13.0663 11.344 12.7122 11.344 12.3005C11.344 11.8805 11.4922 11.5223 11.7886 11.2258C12.0851 10.9294 12.4392 10.7812 12.8509 10.7812C13.2709 10.7812 13.6291 10.9294 13.9255 11.2258C14.2137 11.5223 14.3579 11.8805 14.3579 12.3005Z" fill="#919399"/>
</svg>
