<svg width="159" height="24" viewBox="0 0 159 24" fill="none" xmlns="http://www.w3.org/2000/svg">
<g id="&#208;&#155;&#208;&#190;&#208;&#179;&#208;&#190;">
<path d="M0 18.7919V0H7.71312C9.37358 0 10.793 0.268457 11.9714 0.80537C13.1677 1.34228 14.0872 2.11186 14.7299 3.11409C15.3727 4.11633 15.6941 5.30649 15.6941 6.68456C15.6941 8.06264 15.3727 9.2528 14.7299 10.255C14.0872 11.2573 13.1677 12.0268 11.9714 12.5638C10.793 13.1007 9.37358 13.3691 7.71312 13.3691H1.92828L3.48162 11.7315V18.7919H0ZM3.48162 12.1074L1.92828 10.4161H7.55243C9.08791 10.4161 10.2395 10.094 11.0073 9.44967C11.7929 8.78747 12.1857 7.86577 12.1857 6.68456C12.1857 5.48546 11.7929 4.56376 11.0073 3.91946C10.2395 3.27517 9.08791 2.95302 7.55243 2.95302H1.92828L3.48162 1.2349V12.1074Z" fill="#2C2D2E"/>
<path d="M24.9346 18.9799C23.4705 18.9799 22.1671 18.6667 21.0244 18.0403C19.8818 17.396 18.9801 16.519 18.3195 15.4094C17.6589 14.2998 17.3286 13.038 17.3286 11.6242C17.3286 10.1924 17.6589 8.93065 18.3195 7.83893C18.9801 6.72931 19.8818 5.8613 21.0244 5.2349C22.1671 4.6085 23.4705 4.2953 24.9346 4.2953C26.4165 4.2953 27.7288 4.6085 28.8715 5.2349C30.032 5.8613 30.9337 6.72036 31.5764 7.81208C32.237 8.9038 32.5673 10.1745 32.5673 11.6242C32.5673 13.038 32.237 14.2998 31.5764 15.4094C30.9337 16.519 30.032 17.396 28.8715 18.0403C27.7288 18.6667 26.4165 18.9799 24.9346 18.9799ZM24.9346 16.1074C25.7559 16.1074 26.4879 15.9284 27.1307 15.5705C27.7734 15.2125 28.2733 14.6935 28.6304 14.0134C29.0054 13.3333 29.1929 12.5369 29.1929 11.6242C29.1929 10.6935 29.0054 9.89709 28.6304 9.2349C28.2733 8.55481 27.7734 8.0358 27.1307 7.67785C26.4879 7.31991 25.7648 7.14094 24.9613 7.14094C24.14 7.14094 23.408 7.31991 22.7652 7.67785C22.1403 8.0358 21.6404 8.55481 21.2655 9.2349C20.8905 9.89709 20.7031 10.6935 20.7031 11.6242C20.7031 12.5369 20.8905 13.3333 21.2655 14.0134C21.6404 14.6935 22.1403 15.2125 22.7652 15.5705C23.408 15.9284 24.1311 16.1074 24.9346 16.1074Z" fill="#2C2D2E"/>
<path d="M42.3824 18.9799C40.8826 18.9799 39.5435 18.6667 38.3651 18.0403C37.2046 17.396 36.294 16.519 35.6334 15.4094C34.9728 14.2998 34.6425 13.038 34.6425 11.6242C34.6425 10.1924 34.9728 8.93065 35.6334 7.83893C36.294 6.72931 37.2046 5.8613 38.3651 5.2349C39.5435 4.6085 40.8826 4.2953 42.3824 4.2953C43.775 4.2953 44.9981 4.58166 46.0515 5.15436C47.1228 5.70917 47.9351 6.53244 48.4886 7.62416L45.9176 9.12752C45.4891 8.44743 44.9624 7.94631 44.3375 7.62416C43.7304 7.30201 43.0698 7.14094 42.3556 7.14094C41.5343 7.14094 40.7934 7.31991 40.1327 7.67785C39.4721 8.0358 38.9543 8.55481 38.5794 9.2349C38.2045 9.89709 38.017 10.6935 38.017 11.6242C38.017 12.5548 38.2045 13.3602 38.5794 14.0403C38.9543 14.7025 39.4721 15.2125 40.1327 15.5705C40.7934 15.9284 41.5343 16.1074 42.3556 16.1074C43.0698 16.1074 43.7304 15.9463 44.3375 15.6242C44.9624 15.302 45.4891 14.8009 45.9176 14.1208L48.4886 15.6242C47.9351 16.698 47.1228 17.5302 46.0515 18.1208C44.9981 18.6935 43.775 18.9799 42.3824 18.9799Z" fill="#2C2D2E"/>
<path d="M51.8378 18.7919V0H54.6766L62.8986 13.7181H61.3721L69.4601 0H72.299L72.3526 18.7919H69.0316L69.0048 5.18121H69.7012L62.8451 16.6443H61.2917L54.3285 5.18121H55.1319V18.7919H51.8378Z" fill="#2C2D2E"/>
<path d="M83.8925 18.9799C82.3035 18.9799 80.9108 18.6667 79.7146 18.0403C78.5362 17.396 77.6167 16.519 76.9561 15.4094C76.3133 14.2998 75.9919 13.038 75.9919 11.6242C75.9919 10.1924 76.3044 8.93065 76.9293 7.83893C77.572 6.72931 78.4469 5.8613 79.5539 5.2349C80.6787 4.6085 81.9553 4.2953 83.3837 4.2953C84.7763 4.2953 86.0172 4.59955 87.1063 5.20805C88.1954 5.81656 89.0525 6.67562 89.6774 7.78524C90.3023 8.89486 90.6147 10.2013 90.6147 11.7047C90.6147 11.8479 90.6058 12.0089 90.5879 12.1879C90.5879 12.3669 90.579 12.5369 90.5611 12.698H78.6433V10.4698H88.7936L87.4813 11.1678C87.4991 10.3445 87.3295 9.61969 86.9724 8.99329C86.6153 8.36689 86.1243 7.87472 85.4994 7.51678C84.8924 7.15884 84.1871 6.97987 83.3837 6.97987C82.5624 6.97987 81.8393 7.15884 81.2143 7.51678C80.6073 7.87472 80.1252 8.37584 79.7681 9.02013C79.4289 9.64653 79.2593 10.3893 79.2593 11.2483V11.7852C79.2593 12.6443 79.4557 13.4049 79.8485 14.0671C80.2413 14.7293 80.7948 15.2394 81.5089 15.5973C82.2231 15.9553 83.0444 16.1342 83.9729 16.1342C84.7763 16.1342 85.4994 16.0089 86.1422 15.7584C86.7849 15.5078 87.3563 15.1141 87.8562 14.5772L89.6506 16.6443C89.0078 17.396 88.1954 17.9776 87.2134 18.3893C86.2493 18.783 85.1423 18.9799 83.8925 18.9799Z" fill="#2C2D2E"/>
<path d="M96.6998 18.7919V6.49664L97.4765 7.30201H91.6648V4.45638H105.056V7.30201H99.2709L100.048 6.49664V18.7919H96.6998Z" fill="#2C2D2E"/>
<path d="M115.411 18.9799C114.251 18.9799 113.189 18.7114 112.224 18.1745C111.278 17.6376 110.519 16.8322 109.948 15.7584C109.394 14.6667 109.118 13.2886 109.118 11.6242C109.118 9.94184 109.386 8.56376 109.921 7.48993C110.475 6.41611 111.225 5.61969 112.171 5.10067C113.117 4.56376 114.197 4.2953 115.411 4.2953C116.822 4.2953 118.063 4.59955 119.134 5.20805C120.223 5.81656 121.08 6.66667 121.705 7.75839C122.348 8.85011 122.669 10.1387 122.669 11.6242C122.669 13.1096 122.348 14.4072 121.705 15.5168C121.08 16.6085 120.223 17.4586 119.134 18.0671C118.063 18.6756 116.822 18.9799 115.411 18.9799ZM107.484 24V4.45638H110.671V7.83893L110.564 11.651L110.832 15.4631V24H107.484ZM115.036 16.1074C115.84 16.1074 116.554 15.9284 117.179 15.5705C117.822 15.2125 118.331 14.6935 118.706 14.0134C119.08 13.3333 119.268 12.5369 119.268 11.6242C119.268 10.6935 119.08 9.89709 118.706 9.2349C118.331 8.55481 117.822 8.0358 117.179 7.67785C116.554 7.31991 115.84 7.14094 115.036 7.14094C114.233 7.14094 113.51 7.31991 112.867 7.67785C112.224 8.0358 111.716 8.55481 111.341 9.2349C110.966 9.89709 110.778 10.6935 110.778 11.6242C110.778 12.5369 110.966 13.3333 111.341 14.0134C111.716 14.6935 112.224 15.2125 112.867 15.5705C113.51 15.9284 114.233 16.1074 115.036 16.1074Z" fill="#2C2D2E"/>
<path d="M126.001 18.7919V4.45638H129.349V13.906L137.249 4.45638H140.302V18.7919H136.955V9.34228L129.081 18.7919H126.001Z" fill="#2C2D2E"/>
<path d="M155.063 18.7919L149.894 11.9195L152.626 10.2282L159 18.7919H155.063ZM144.806 18.7919V4.45638H148.153V18.7919H144.806ZM147.163 13.047V10.255H152.01V13.047H147.163ZM152.947 12.0268L149.814 11.651L155.063 4.45638H158.652L152.947 12.0268Z" fill="#2C2D2E"/>
</g>
</svg>
