<svg width="24" height="24" viewBox="0 0 24 24" fill="none" xmlns="http://www.w3.org/2000/svg">
<path d="M12.0171 13.5591C11.5766 13.5591 11.1286 13.3313 10.673 12.8757L1.24158 3.53536C1.60607 3.17845 2.25154 3 3.17798 3H20.5373C21.6004 3 22.337 3.18984 22.747 3.56953L13.3612 12.8757C12.898 13.3313 12.4499 13.5591 12.0171 13.5591ZM0.284765 19.972C0.0949217 19.6455 0 19.0949 0 18.3204V6.42857C0 5.6616 0.0911248 5.11106 0.273374 4.77693L7.96203 12.3745L0.284765 19.972ZM3.46274 21.7603C2.43 21.7603 1.701 21.5781 1.27575 21.2136L9.07831 13.468L9.77314 14.1514C10.5021 14.85 11.2501 15.1993 12.0171 15.1993C12.7841 15.1993 13.532 14.85 14.261 14.1514L14.9445 13.468L22.7812 21.225C22.4015 21.5819 21.7485 21.7603 20.822 21.7603H3.46274ZM23.738 19.9606L16.0721 12.3745L23.738 4.81111C23.9127 5.13764 24 5.67679 24 6.42857V18.3204C24 19.0873 23.9127 19.6341 23.738 19.9606Z" fill="#919399"/>
</svg>
