<svg width="24" height="24" viewBox="0 0 24 24" fill="none" xmlns="http://www.w3.org/2000/svg">
<path d="M6.57497 17.3709C5.32131 16.1263 4.19842 14.823 3.20631 13.4611C2.21421 12.0902 1.42954 10.7193 0.852311 9.34837C0.284104 7.97745 0 6.67418 0 5.43856C0 4.61781 0.144307 3.84216 0.43292 3.11161C0.721533 2.38106 1.18151 1.71364 1.81285 1.10936C2.57948 0.369786 3.40474 0 4.28861 0C4.64938 0 4.9876 0.0766629 5.30327 0.229989C5.61894 0.374295 5.88501 0.604284 6.10147 0.919955L8.87486 4.80271C9.09132 5.10936 9.24916 5.39346 9.34837 5.65502C9.4566 5.90755 9.51071 6.15107 9.51071 6.38557C9.51071 6.6832 9.42954 6.97182 9.26719 7.25141C9.10485 7.52198 8.87937 7.80609 8.59076 8.10372L7.68433 9.02367C7.54904 9.14994 7.4814 9.30778 7.4814 9.49718C7.4814 9.60541 7.49493 9.70462 7.52198 9.79481C7.55806 9.87599 7.59414 9.95265 7.63021 10.0248C7.83766 10.4216 8.20744 10.9357 8.73957 11.5671C9.2717 12.1984 9.85795 12.8298 10.4983 13.4611C11.1297 14.0924 11.7565 14.6742 12.3788 15.2063C13.0101 15.7384 13.5287 16.1127 13.9346 16.3292C13.9977 16.3563 14.0744 16.3878 14.1646 16.4239C14.2548 16.451 14.3495 16.4645 14.4487 16.4645C14.6471 16.4645 14.8095 16.3968 14.9357 16.2616L15.8692 15.3687C16.1578 15.071 16.4374 14.8455 16.708 14.6922C16.9876 14.5299 17.2717 14.4487 17.5603 14.4487C17.7948 14.4487 18.0383 14.4983 18.2909 14.5975C18.5524 14.6967 18.8365 14.8591 19.1432 15.0846L23.08 17.8715C23.3957 18.0879 23.6212 18.3495 23.7565 18.6561C23.8918 18.9628 23.9594 19.2785 23.9594 19.6032C23.9594 20.0451 23.8557 20.4825 23.6483 20.9154C23.4498 21.3484 23.1838 21.7542 22.8501 22.133C22.2638 22.7824 21.6099 23.2559 20.8884 23.5536C20.1669 23.8512 19.3867 24 18.5479 24C17.3213 24 16.018 23.7069 14.6381 23.1206C13.2582 22.5434 11.8782 21.7542 10.4983 20.7531C9.11838 19.752 7.8106 18.6246 6.57497 17.3709Z" fill="#919399"/>
</svg>
