<svg width="11" height="12" viewBox="0 0 11 12" fill="none" xmlns="http://www.w3.org/2000/svg">
<path d="M8.06023 5.93699C8.06023 6.0887 8.00063 6.22597 7.88142 6.34879L3.85553 10.2826C3.80496 10.3295 3.74897 10.3675 3.68756 10.3963C3.62254 10.4252 3.5521 10.4397 3.47624 10.4397C3.3751 10.4397 3.28479 10.4162 3.20532 10.3693C3.12224 10.3223 3.05722 10.2591 3.01026 10.1796C2.9633 10.0965 2.93982 10.0044 2.93982 9.90327C2.93982 9.75517 2.9922 9.62693 3.09695 9.51857L7.03073 5.6769L7.03073 6.20249L3.09695 2.36625C2.9922 2.25065 2.93982 2.12061 2.93982 1.97612C2.93982 1.87498 2.9633 1.78467 3.01026 1.7052C3.05722 1.62212 3.12224 1.5571 3.20532 1.51014C3.28479 1.46318 3.3751 1.4397 3.47624 1.4397C3.62073 1.4397 3.74716 1.49207 3.85553 1.59683L5.86577 3.56643L7.876 5.53602C7.93741 5.59021 7.98437 5.65162 8.01688 5.72025C8.04578 5.78888 8.06023 5.86113 8.06023 5.93699Z" fill="#919399"/>
</svg>
