<svg width="18" height="18" viewBox="0 0 18 18" fill="none" xmlns="http://www.w3.org/2000/svg">
<path d="M8.21955 18C7.97895 18 7.77444 17.9308 7.60601 17.7925C7.44361 17.6541 7.33534 17.4707 7.2812 17.2421L6.8391 15.4015C6.68872 15.3474 6.53835 15.2902 6.38797 15.2301C6.23759 15.1699 6.09624 15.1068 5.96391 15.0406L4.34887 16.0331C4.15639 16.1594 3.95188 16.2105 3.73534 16.1865C3.5188 16.1684 3.33233 16.0782 3.17594 15.9158L2.07519 14.815C1.90677 14.6526 1.81053 14.4632 1.78647 14.2466C1.76842 14.0241 1.82857 13.8165 1.96692 13.6241L2.95038 12.018C2.8782 11.8797 2.81203 11.7383 2.75188 11.594C2.69774 11.4496 2.64962 11.3053 2.60752 11.1609L0.748872 10.7188C0.508271 10.6707 0.321804 10.5654 0.189474 10.403C0.0631579 10.2346 0 10.0301 0 9.78947V8.24662C0 8.01804 0.0631579 7.81955 0.189474 7.65113C0.321804 7.48271 0.508271 7.37444 0.748872 7.32632L2.58947 6.88421C2.64361 6.71579 2.69774 6.5594 2.75188 6.41504C2.81203 6.27068 2.87218 6.13534 2.93233 6.00902L1.94887 4.38496C1.81654 4.18647 1.7594 3.98195 1.77744 3.77143C1.79549 3.55489 1.88872 3.36541 2.05714 3.20301L3.17594 2.10226C3.34436 1.94586 3.52481 1.85564 3.71729 1.83158C3.91579 1.80752 4.11729 1.85263 4.3218 1.96692L5.95489 2.96842C6.08722 2.90226 6.22857 2.8391 6.37895 2.77895C6.53534 2.7188 6.68872 2.65865 6.8391 2.5985L7.2812 0.748872C7.33534 0.520301 7.44361 0.33985 7.60601 0.207519C7.77444 0.0691729 7.97895 0 8.21955 0H9.78947C10.0241 0 10.2256 0.0691729 10.394 0.207519C10.5624 0.33985 10.6707 0.520301 10.7188 0.748872L11.1609 2.61654C11.3233 2.67669 11.4767 2.73684 11.6211 2.79699C11.7654 2.85113 11.9038 2.91128 12.0361 2.97744L13.6782 1.96692C13.8767 1.85263 14.0752 1.80752 14.2737 1.83158C14.4722 1.85564 14.6556 1.94586 14.8241 2.10226L15.9429 3.20301C16.1113 3.36541 16.2045 3.55489 16.2226 3.77143C16.2406 3.98195 16.1835 4.18647 16.0511 4.38496L15.0677 6.00902C15.1278 6.13534 15.185 6.27068 15.2391 6.41504C15.2992 6.5594 15.3564 6.71579 15.4105 6.88421L17.2511 7.32632C17.4857 7.37444 17.6692 7.48271 17.8015 7.65113C17.9338 7.81955 18 8.01804 18 8.24662V9.78947C18 10.0301 17.9338 10.2346 17.8015 10.403C17.6692 10.5654 17.4857 10.6707 17.2511 10.7188L15.4015 11.1609C15.3534 11.3053 15.2992 11.4496 15.2391 11.594C15.1789 11.7383 15.1158 11.8797 15.0496 12.018L16.0331 13.6241C16.1654 13.8165 16.2226 14.0241 16.2045 14.2466C16.1865 14.4632 16.0932 14.6526 15.9248 14.815L14.8241 15.9158C14.6617 16.0782 14.4722 16.1684 14.2556 16.1865C14.0451 16.2105 13.8436 16.1594 13.6511 16.0331L12.0361 15.0406C11.8977 15.1068 11.7534 15.1699 11.603 15.2301C11.4586 15.2902 11.3083 15.3474 11.1519 15.4015L10.7188 17.2421C10.6707 17.4707 10.5624 17.6541 10.394 17.7925C10.2256 17.9308 10.0241 18 9.78947 18H8.21955ZM9.00451 12C9.55188 12 10.0511 11.8647 10.5023 11.594C10.9594 11.3173 11.3233 10.9534 11.594 10.5023C11.8647 10.0451 12 9.53985 12 8.98647C12 8.4391 11.8647 7.93985 11.594 7.48872C11.3233 7.03759 10.9594 6.67669 10.5023 6.40601C10.0511 6.13534 9.55188 6 9.00451 6C8.45113 6 7.94586 6.13534 7.48872 6.40601C7.03759 6.67669 6.67669 7.03759 6.40601 7.48872C6.13534 7.93985 6 8.4391 6 8.98647C6 9.53985 6.13534 10.0451 6.40601 10.5023C6.67669 10.9534 7.03759 11.3173 7.48872 11.594C7.94586 11.8647 8.45113 12 9.00451 12Z" fill="#2C2D2E"/>
</svg>
