<svg width="387" height="128" viewBox="0 0 387 128" fill="none" xmlns="http://www.w3.org/2000/svg">
<path opacity="0.13" d="M13.0036 89.868C80.8879 88.8925 88.3011 76.0352 132.437 80.5129C176.574 84.9907 212.797 101.75 261.82 93.073C311.399 84.4333 336.998 46.781 369.093 60.3815C401.189 73.9821 407.39 98.0617 435.238 95.8971C463.086 93.7326 491.406 70.0338 513.414 69.8852C532.358 69.718 514.552 91.0292 566.611 89.868" stroke="#528FDF" stroke-width="0.75" stroke-miterlimit="10"/>
<path opacity="0.25" d="M11.2914 91.54C79.1758 90.611 86.7 64.7477 130.836 69.2441C174.973 73.7404 207.652 105.252 256.841 97.8944C307.021 90.5367 328.354 38.5314 360.496 52.132C392.638 65.7325 396.192 101.155 424.04 99.0185C451.887 96.8818 478.791 66.5036 503.853 66.8659C522.789 67.1631 517.171 97.5228 569.211 92.5898" stroke="#528FDF" stroke-width="0.75" stroke-miterlimit="10"/>
<path opacity="0.38" d="M9.57925 93.2122C77.4544 92.2368 85.1081 53.4604 129.245 57.9103C173.381 62.3602 202.599 108.689 251.871 102.642C302.681 96.603 319.71 30.1797 351.824 43.8174C383.938 57.4551 385.021 104.277 412.86 102.112C440.698 99.9474 466.195 63.0941 494.302 63.8651C513.238 64.3761 519.79 104.026 571.83 95.3117" stroke="#528FDF" stroke-width="0.75" stroke-miterlimit="10"/>
<path opacity="0.5" d="M7.83934 94.8844C75.7145 93.909 83.4885 42.1638 127.616 46.6415C171.743 51.1193 197.462 112.099 246.865 107.463C298.312 102.642 311.038 21.9952 343.115 35.5772C375.192 49.1591 373.749 107.426 401.596 105.252C429.444 103.078 453.498 59.7311 484.687 60.9017C503.604 61.617 522.345 110.584 574.366 98.0616" stroke="#528FDF" stroke-width="0.75" stroke-miterlimit="10"/>
<path opacity="0.63" d="M6.1457 96.5565C74.0301 95.6275 81.9152 30.8764 126.052 35.3541C170.188 39.8319 192.4 115.694 241.922 112.266C294.018 108.856 302.421 13.7085 334.527 27.309C366.632 40.9096 362.606 110.547 390.454 108.373C418.301 106.2 440.939 56.3495 475.182 57.9288C494.099 58.8578 525.01 117.125 576.985 100.858" stroke="#528FDF" stroke-width="0.75" stroke-miterlimit="10"/>
<path opacity="0.75" d="M4.43355 98.2288C72.3179 97.2998 80.3234 19.5891 124.46 24.0669C168.596 28.5446 187.3 119.178 236.943 117.06C289.696 114.969 293.777 5.44046 325.882 19.041C357.988 32.6415 351.407 113.669 379.255 111.495C407.103 109.321 428.306 52.8379 465.622 54.9561C484.539 56.0244 527.629 123.702 579.632 103.608" stroke="#528FDF" stroke-width="0.75" stroke-miterlimit="10"/>
<path opacity="0.88" d="M2.72141 99.9011C70.5965 98.9721 78.7223 8.30194 122.859 12.7797C166.995 17.2575 182.201 122.662 231.973 121.853C285.346 121.082 285.133 -2.82746 317.238 10.7731C349.344 24.3736 340.218 116.79 368.057 114.616C395.895 112.443 415.719 49.3544 456.061 51.9741C474.978 53.2097 530.239 130.196 582.233 106.367" stroke="#528FDF" stroke-width="0.75" stroke-miterlimit="10"/>
<path d="M1 101.583C68.8844 100.654 77.1305 -2.98551 121.313 1.48297C165.496 5.95145 177.101 126.145 226.994 126.647C281.015 127.195 276.489 -11.0957 308.594 2.50488C340.7 16.1054 329.02 119.902 356.868 117.701C384.716 115.499 403.142 45.7869 446.51 48.9548C465.418 50.3297 532.849 136.68 584.843 109.08" stroke="#528FDF" stroke-width="0.75" stroke-miterlimit="10"/>
</svg>
